# xmcd
#
# Track frame offsets: 
#        150
#        24532
#        40892
#
# Disc length: 879 seconds
#
# Revision: 0
# Processed by: cddbd v1.5.2PL0 Copyright (c) Steve Scherf et al.
# Submitted via: ExactAudioCopy v0.99pb5
#
DISCID=1c036d03
DTITLE=Jurassic 5 - Concrete Schoolyard (Single) [UK]
DYEAR=1998
DGENRE=Hip-Hop
TTITLE0=Concrete Schoolyard (Full Length Kazoo MIx)
TTITLE1=Rubber Tires
TTITLE2=Lesson 6: The Lecture
EXTD=
EXTT0=
EXTT1=
EXTT2=
PLAYORDER=
